<svg width="61" height="67" viewBox="0 0 61 67" fill="none" xmlns="http://www.w3.org/2000/svg">
<g clip-path="url(#clip0)">
<path d="M46.7955 45.7674C47.1197 45.4421 60.4398 33.7432 60.4398 33.7432L58.1701 32.7672C56.8731 32.1296 57.2103 31.2707 57.5216 30.5029C57.8329 29.5139 60.1285 21.7451 60.1285 21.7451C60.1285 21.7451 53.9419 23.0464 52.6449 23.3717C51.6722 23.684 51.3479 23.0464 51.0237 22.3957C50.6994 21.7451 49.0782 18.1794 49.0782 18.1794C49.0782 18.1794 42.256 25.9743 41.9317 26.2867C40.6348 27.2626 39.3248 26.2867 39.649 24.9853C39.649 23.684 43.2287 8.12023 43.2287 8.12023C43.2287 8.12023 39.3248 10.3845 38.0278 11.0352C37.0551 11.6859 36.3936 11.6859 35.7451 10.3845C35.0836 9.40854 30.2069 0 30.2069 0C30.2069 0 25.3432 9.40854 24.6947 10.3845C24.0462 11.6859 23.3977 11.6859 22.412 11.0352C21.115 10.3845 17.2111 8.12023 17.2111 8.12023C17.2111 8.12023 20.7908 23.684 20.7908 24.9853C21.115 26.2867 19.818 27.2626 18.5081 26.2867C18.1838 25.9613 11.3616 18.1794 11.3616 18.1794C11.3616 18.1794 9.74041 21.732 9.41616 22.3827C9.09191 23.0334 8.76766 23.671 7.79492 23.3587C6.48496 23.0334 0.311278 21.732 0.311278 21.732C0.311278 21.732 2.59398 29.5009 2.91823 30.4899C3.22951 31.2707 3.56673 32.1166 2.26974 32.7542L0 33.7432C0 33.7432 13.3071 45.4421 13.6444 45.7674C14.3058 46.4181 14.9413 46.7434 14.3058 48.6954C13.6444 50.6474 12.9959 53.263 12.9959 53.263C12.9959 53.263 25.3432 50.6474 26.6532 50.322C27.7816 50.2049 29.0267 50.6474 29.0267 51.9487C29.0267 53.25 28.2744 66.6276 28.2744 66.6276H32.1654C32.1654 66.6276 31.4131 53.263 31.4131 51.9487C31.4131 50.6343 32.6453 50.2049 33.7996 50.322C35.0966 50.6474 47.444 53.263 47.444 53.263C47.444 53.263 46.7955 50.6474 46.147 48.6954C45.4985 46.7434 46.147 46.4181 46.7955 45.7674Z" fill="#F4F5F4"/>
</g>
<defs>
<clipPath id="clip0">
<rect width="60.4398" height="66.6276" rx="20" fill="white"/>
</clipPath>
</defs>
</svg>
