<svg width="65" height="60" viewBox="0 0 65 60" fill="none" xmlns="http://www.w3.org/2000/svg">
<path d="M51.4583 16.3636H49.2375L44.6333 3.6C44.2522 2.54756 43.5597 1.63814 42.6492 0.994408C41.7387 0.350678 40.6541 0.00360443 39.5417 0H35.2083C33.7188 0 32.5 1.22727 32.5 2.72727C32.5 4.22727 33.7188 5.45455 35.2083 5.45455H39.5417L43.4958 16.3636H30.4688L29.4937 13.6364H29.7375C31.2271 13.6364 32.4458 12.4091 32.4458 10.9091C32.4458 9.40909 31.2271 8.18182 29.7375 8.18182H21.6667C20.1771 8.18182 18.9583 9.40909 18.9583 10.9091C18.9583 12.4091 20.1771 13.6364 21.6667 13.6364H23.6979L28.6271 27.2727H26.8125C25.6208 21.1909 20.5562 16.6909 14.2188 16.3909C6.63542 16.0091 0 22.3636 0 30C0 37.6364 5.95833 43.6364 13.5417 43.6364C20.2042 43.6364 25.5937 39.0273 26.8125 32.7273H38.1875C39.3792 38.8091 44.4437 43.3091 50.7812 43.6091C58.3646 43.9636 65 37.6364 65 29.9727C65 22.3636 59.0417 16.3636 51.4583 16.3636ZM16.25 32.7273H21.1792C20.0417 36.0818 16.8458 38.4 13 38.1545C8.96458 37.9091 5.60625 34.4727 5.41667 30.3818C5.22708 25.6091 8.85625 21.8182 13.5417 21.8182C17.1437 21.8182 20.0958 24.0818 21.1792 27.2727H16.25C14.7604 27.2727 13.5417 28.5 13.5417 30C13.5417 31.5 14.7604 32.7273 16.25 32.7273ZM38.1875 27.2727H34.3958L32.4188 21.8182H40.625C39.4333 23.4 38.5667 25.2273 38.1875 27.2727ZM51.1333 38.1818C46.9625 38.0182 43.4417 34.4455 43.3333 30.2182C43.2792 27.6 44.3896 25.3091 46.1771 23.7818L47.8562 28.4182C48.3708 29.8364 49.9146 30.5727 51.3229 30.0545C52.7313 29.5364 53.4625 27.9818 52.9479 26.5636L51.2417 21.8455L51.2687 21.8182C52.3546 21.7809 53.4367 21.9656 54.4497 22.3611C55.4627 22.7566 56.3856 23.3548 57.1627 24.1195C57.9398 24.8841 58.5549 25.7995 58.9709 26.8102C59.387 27.8209 59.5953 28.906 59.5833 30C59.5833 34.6909 55.8458 38.3455 51.1333 38.1818ZM29.7917 51.8182H18.9583L35.2083 60V54.5455H46.0417L29.7917 46.3636V51.8182Z" fill="white"/>
</svg>
