<svg width="59" height="48" viewBox="0 0 59 48" fill="none" xmlns="http://www.w3.org/2000/svg">
<path d="M39.3333 0.457143C36.875 0.457143 34.9083 2.28571 34.9083 4.57143C34.9083 6.85714 36.875 8.68571 39.3333 8.68571C41.7917 8.68571 43.7583 6.85714 43.7583 4.57143C43.7583 2.28571 41.7917 0.457143 39.3333 0.457143ZM30.4833 7.08571C29.3279 7.08571 28.2708 7.52 27.5333 8.22857L18.4375 16.6629C17.6754 17.3714 17.2083 18.2857 17.2083 19.4286C17.2083 20.8686 18.0196 22.08 19.2979 22.7886L23.8608 25.3594C26.1297 26.6377 27.5333 29.0397 27.5333 31.6439V36.6446C27.5333 37.8666 28.5239 38.8571 29.7458 38.8571C30.9678 38.8571 31.9583 37.8666 31.9583 36.6446V25.9957C31.9583 24.747 31.3411 23.5792 30.3095 22.8757L29.8298 22.5487C28.0824 21.3572 27.8856 18.855 29.4251 17.405C30.8659 16.0481 33.1675 16.2506 34.3492 17.8383L35.0688 18.8053C35.8959 19.9165 37.1997 20.5714 38.585 20.5714H44.6512C45.7873 20.5714 46.7083 19.6504 46.7083 18.5143C46.7083 17.3782 45.7873 16.4571 44.6512 16.4571H41.627C39.8919 16.4571 38.2767 15.5718 37.3434 14.1091L34.0725 8.98286C33.3596 7.84 31.9583 7.08571 30.4833 7.08571ZM26.1948 3.5485C25.0876 4.10365 23.9099 4.57143 22.6714 4.57143H7.375C6.02292 4.57143 4.91667 3.54286 4.91667 2.28571C4.91667 1.02857 6.02292 0 7.375 0H29.4585C30.3073 0 30.8264 0.958733 30.5284 1.75348C30.3591 2.20529 29.9498 2.53822 29.47 2.58928C28.3138 2.7123 27.2066 3.04123 26.1948 3.5485ZM12.2917 25.1429C5.50667 25.1429 0 30.2629 0 36.5714C0 42.88 5.50667 48 12.2917 48C19.0767 48 24.5833 42.88 24.5833 36.5714C24.5833 30.2629 19.0767 25.1429 12.2917 25.1429ZM12.2917 44.5714C7.54708 44.5714 3.6875 40.9829 3.6875 36.5714C3.6875 32.16 7.54708 28.5714 12.2917 28.5714C17.0362 28.5714 20.8958 32.16 20.8958 36.5714C20.8958 40.9829 17.0362 44.5714 12.2917 44.5714ZM46.7083 25.1429C39.9233 25.1429 34.4167 30.2629 34.4167 36.5714C34.4167 42.88 39.9233 48 46.7083 48C53.4933 48 59 42.88 59 36.5714C59 30.2629 53.4933 25.1429 46.7083 25.1429ZM46.7083 44.5714C41.9637 44.5714 38.1042 40.9829 38.1042 36.5714C38.1042 32.16 41.9637 28.5714 46.7083 28.5714C51.4529 28.5714 55.3125 32.16 55.3125 36.5714C55.3125 40.9829 51.4529 44.5714 46.7083 44.5714ZM12.2917 19.4286C12.2917 21.0801 11.184 22.8571 9.53246 22.8571H2.45833C1.10133 22.8571 0 21.8286 0 20.5714C0 19.3143 1.10133 18.2857 2.45833 18.2857H11.2641C11.873 18.2857 12.2917 18.8196 12.2917 19.4286ZM14.9713 13.4171C14.8182 13.5595 14.5806 13.7143 14.3715 13.7143H4.91667C3.56458 13.7143 2.45833 12.6857 2.45833 11.4286C2.45833 10.1714 3.56458 9.14286 4.91667 9.14286H13.2977C15.5403 9.14286 16.6176 11.8945 14.9713 13.4171Z" fill="#F4F5F4"/>
</svg>
