<svg width="65" height="65" viewBox="0 0 65 65" fill="none" xmlns="http://www.w3.org/2000/svg">
<path d="M63.619 50.2304L48.7536 35.3657C43.7967 30.4089 34.5785 30.2674 29.6215 25.3106L26.9056 22.5948C25.2885 20.9778 24.38 18.7846 24.38 16.4977C24.38 13.7836 23.1021 11.228 20.9309 9.59956L12.7266 3.44665C10.0896 1.46896 6.39963 1.73119 4.06879 4.06193C1.7378 6.39282 1.47554 10.0831 3.45346 12.7202L9.60617 20.9234C11.2347 23.0948 13.7905 24.3726 16.5047 24.3726C18.7917 24.3726 20.985 25.2811 22.6022 26.8982L25.3209 29.6168C30.2789 34.5746 30.4155 43.7875 35.3735 48.7452L50.2389 63.61C52.0923 65.4633 55.0882 65.4633 56.929 63.61L63.619 56.9202C65.4597 55.0669 65.4597 52.0711 63.619 50.2304ZM42.1144 28.5617C45.7069 28.5617 49.0837 29.958 51.6226 32.4968C53.1082 33.9823 55.3957 34.4656 57.1344 33.2864C58.018 32.6872 58.8605 31.9998 59.6456 31.2147C64.3553 26.5052 65.9548 19.8789 64.4569 13.8619C64.1776 12.7195 62.7431 12.3259 61.9052 13.1638L55.0467 20.022C53.4236 21.645 51.1167 22.3845 48.8525 22.0077C45.8549 21.5089 43.5057 19.1598 43.0068 16.1623C42.63 13.8981 43.3695 11.5913 44.9926 9.96829L51.8511 3.11005C52.689 2.27224 52.2827 0.837809 51.1275 0.545845C45.1103 -0.939361 38.4837 0.660092 33.7867 5.3569C31.7358 7.40767 30.3009 9.82962 29.4588 12.41C28.2262 16.1871 30.1262 20.0776 32.9357 22.887L36.7414 26.6925C38.1325 28.0836 40.1471 28.5617 42.1144 28.5617ZM28.6167 42.5787C28.4937 40.3225 27.9535 37.9996 26.3556 36.4019C23.7994 33.8458 19.6549 33.8465 17.0995 36.4034L2.38024 51.1317C-0.793413 54.3052 -0.793413 59.4463 2.38024 62.6199C5.55389 65.7934 10.6952 65.7934 13.8689 62.6199L26.4729 50.0163C28.3506 48.1388 28.7882 45.334 28.6229 42.6838C28.6207 42.6488 28.6186 42.6138 28.6167 42.5787ZM8.13089 59.916C6.45521 59.916 5.08419 58.5451 5.08419 56.8694C5.08419 55.1811 6.44251 53.8229 8.13089 53.8229C9.81928 53.8229 11.1776 55.1811 11.1776 56.8694C11.1776 58.5451 9.81928 59.916 8.13089 59.916Z" fill="#F4F5F4"/>
</svg>
