<svg width="114" height="70" viewBox="0 0 114 70" fill="none" xmlns="http://www.w3.org/2000/svg">
<path d="M111.15 48.125H108.3V33.3457C108.3 31.6094 107.392 29.9414 105.788 28.7109L87.9938 15.0527C86.3906 13.8223 84.2175 13.125 81.9553 13.125H74.1V6.5625C74.1 2.93945 70.2703 0 65.55 0H19.95C15.2297 0 11.4 2.93945 11.4 6.5625V13.125H1.425C0.64125 13.125 0 13.6172 0 14.2188V16.4062C0 17.0078 0.64125 17.5 1.425 17.5H49.875C50.6587 17.5 51.3 17.9922 51.3 18.5938V20.7812C51.3 21.3828 50.6587 21.875 49.875 21.875H7.125C6.34125 21.875 5.7 22.3672 5.7 22.9688V25.1562C5.7 25.7578 6.34125 26.25 7.125 26.25H44.175C44.9587 26.25 45.6 26.7422 45.6 27.3438V29.5312C45.6 30.1328 44.9587 30.625 44.175 30.625H1.425C0.64125 30.625 0 31.1172 0 31.7188V33.9062C0 34.5078 0.64125 35 1.425 35H38.475C39.2588 35 39.9 35.4922 39.9 36.0938V38.2812C39.9 38.8828 39.2588 39.375 38.475 39.375H11.4V56.875C11.4 64.1211 19.0594 70 28.5 70C37.9406 70 45.6 64.1211 45.6 56.875H68.4C68.4 64.1211 76.0594 70 85.5 70C94.9406 70 102.6 64.1211 102.6 56.875H111.15C112.717 56.875 114 55.8906 114 54.6875V50.3125C114 49.1094 112.717 48.125 111.15 48.125ZM28.5 63.4375C23.7797 63.4375 19.95 60.498 19.95 56.875C19.95 53.252 23.7797 50.3125 28.5 50.3125C33.2203 50.3125 37.05 53.252 37.05 56.875C37.05 60.498 33.2203 63.4375 28.5 63.4375ZM85.5 63.4375C80.7797 63.4375 76.95 60.498 76.95 56.875C76.95 53.252 80.7797 50.3125 85.5 50.3125C90.2203 50.3125 94.05 53.252 94.05 56.875C94.05 60.498 90.2203 63.4375 85.5 63.4375ZM99.75 35H74.1V19.6875H81.9553L99.75 33.3457V35Z" fill="#242424"/>
</svg>
