<svg width="65" height="60" viewBox="0 0 65 60" fill="none" xmlns="http://www.w3.org/2000/svg">
<path d="M63.375 41.25V41.25C62.4775 41.25 61.75 40.5225 61.75 39.625V28.582C61.75 27.0938 61.232 25.6641 60.318 24.6094L50.1719 12.9023C49.2578 11.8477 48.0187 11.25 46.7289 11.25V11.25C44.2553 11.25 42.25 9.24473 42.25 6.77109V5.625C42.25 2.51953 40.0664 0 37.375 0H11.375C8.68359 0 6.5 2.51953 6.5 5.625V5.625C6.5 8.7316 3.9816 11.25 0.875 11.25H0.8125C0.365625 11.25 0 11.6719 0 12.1875V14.0625C0 14.5781 0.365625 15 0.8125 15H28.4375C28.8844 15 29.25 15.4219 29.25 15.9375V17.8125C29.25 18.3281 28.8844 18.75 28.4375 18.75H4.0625C3.61562 18.75 3.25 19.1719 3.25 19.6875V21.5625C3.25 22.0781 3.61562 22.5 4.0625 22.5H25.1875C25.6344 22.5 26 22.9219 26 23.4375V25.3125C26 25.8281 25.6344 26.25 25.1875 26.25H0.8125C0.365625 26.25 0 26.6719 0 27.1875V29.0625C0 29.5781 0.365625 30 0.8125 30H21.9375C22.3844 30 22.75 30.4219 22.75 30.9375V32.8125C22.75 33.3281 22.3844 33.75 21.9375 33.75H21.5C13.2157 33.75 6.5 40.4657 6.5 48.75V48.75C6.5 54.9609 10.8672 60 16.25 60C19.6406 60 22.6282 58.0007 24.3753 54.9685C26.1674 51.858 28.9101 48.75 32.5 48.75V48.75C36.0898 48.75 38.8325 51.858 40.6247 54.9685C42.3718 58.0007 45.3594 60 48.75 60C52.6589 60 56.0323 57.3426 57.5866 53.5089C58.5981 51.0137 60.6826 48.75 63.375 48.75V48.75C64.2688 48.75 65 47.9062 65 46.875V43.125C65 42.0938 64.2688 41.25 63.375 41.25ZM16.25 54.375C13.5586 54.375 11.375 51.8555 11.375 48.75C11.375 45.6445 13.5586 43.125 16.25 43.125C18.9414 43.125 21.125 45.6445 21.125 48.75C21.125 51.8555 18.9414 54.375 16.25 54.375ZM48.75 54.375C46.0586 54.375 43.875 51.8555 43.875 48.75C43.875 45.6445 46.0586 43.125 48.75 43.125C51.4414 43.125 53.625 45.6445 53.625 48.75C53.625 51.8555 51.4414 54.375 48.75 54.375ZM56.875 28.9673C56.875 29.5376 56.4126 30 55.8423 30H48.8125C45.1881 30 42.25 27.0619 42.25 23.4375V19.9498C42.25 18.2517 43.6267 16.875 45.3248 16.875V16.875C46.2166 16.875 47.0644 17.2621 47.6485 17.936L56.6227 28.2909C56.7854 28.4787 56.875 28.7188 56.875 28.9673V28.9673Z" fill="#F4F5F4"/>
</svg>
