<svg width="57" height="65" viewBox="0 0 57 65" fill="none" xmlns="http://www.w3.org/2000/svg">
<path fill-rule="evenodd" clip-rule="evenodd" d="M28.4375 0C25.6344 0 20.9503 1.07656 16.5425 2.275C12.0331 3.49375 7.48721 4.93594 4.81408 5.80937C3.69646 6.17846 2.70561 6.85533 1.95537 7.76222C1.20513 8.66912 0.725939 9.76926 0.572834 10.9362C-1.84842 29.1241 3.77002 42.6034 10.5869 51.5206C13.4777 55.3352 16.9245 58.6943 20.8122 61.4859C22.3803 62.595 23.8347 63.4441 25.0697 64.025C26.2072 64.5612 27.43 65 28.4375 65C29.445 65 30.6638 64.5612 31.8053 64.025C33.2942 63.3014 34.7185 62.4519 36.0628 61.4859C39.9506 58.6944 43.3974 55.3352 46.2881 51.5206C53.105 42.6034 58.7235 29.1241 56.3022 10.9362C56.1494 9.76869 55.6703 8.66791 54.9201 7.76032C54.1699 6.85273 53.1789 6.17512 52.061 5.80531C48.1805 4.53299 44.2699 3.35452 40.3325 2.27094C35.9247 1.08063 31.2406 0 28.4375 0ZM37.1556 20.9056C37.5371 20.5242 38.0544 20.3099 38.5938 20.3099C39.1332 20.3099 39.6505 20.5242 40.0319 20.9056C40.4133 21.287 40.6276 21.8043 40.6276 22.3438C40.6276 22.8832 40.4133 23.4005 40.0319 23.7819L27.8444 35.9694C27.6557 36.1585 27.4316 36.3086 27.1848 36.411C26.938 36.5134 26.6735 36.5661 26.4063 36.5661C26.1391 36.5661 25.8745 36.5134 25.6278 36.411C25.381 36.3086 25.1568 36.1585 24.9681 35.9694L18.8744 29.8756C18.6855 29.6868 18.5357 29.4626 18.4335 29.2158C18.3313 28.9691 18.2787 28.7046 18.2787 28.4375C18.2787 28.1704 18.3313 27.9059 18.4335 27.6592C18.5357 27.4124 18.6855 27.1882 18.8744 26.9994C19.0633 26.8105 19.2875 26.6607 19.5342 26.5585C19.781 26.4563 20.0454 26.4037 20.3125 26.4037C20.5796 26.4037 20.8441 26.4563 21.0908 26.5585C21.3376 26.6607 21.5618 26.8105 21.7506 26.9994L26.4063 31.6591L37.1556 20.9056Z" fill="white"/>
</svg>
