<svg width="70" height="70" viewBox="0 0 70 70" fill="none" xmlns="http://www.w3.org/2000/svg">
<path d="M34.9877 57.8949C35.8471 57.895 36.6766 58.2102 37.3188 58.7806C37.961 59.3511 38.3713 60.1371 38.4718 60.9896L38.4964 61.3997V66.5026C38.4945 67.3956 38.1514 68.2542 37.5373 68.9031C36.9231 69.552 36.0841 69.9422 35.1916 69.9941C34.2991 70.046 33.4205 69.7556 32.7351 69.1823C32.0497 68.6089 31.6092 67.7959 31.5037 66.9091L31.4791 66.5026V61.3997C31.4791 60.4702 31.8488 59.5787 32.5068 58.9214C33.1648 58.2642 34.0572 57.8949 34.9877 57.8949ZM56.1658 51.1238L59.7797 54.7336C60.4184 55.3951 60.7714 56.2807 60.7628 57.1996C60.7542 58.1185 60.3845 58.9973 59.7335 59.6467C59.0826 60.296 58.2023 60.664 57.2823 60.6713C56.3623 60.6786 55.4763 60.3248 54.815 59.6859L51.2046 56.0795C50.5655 55.4185 50.2119 54.5332 50.2199 53.6142C50.2278 52.6953 50.5968 51.8163 51.2474 51.1664C51.8979 50.5166 52.7779 50.1481 53.6979 50.1401C54.6178 50.1321 55.5041 50.4853 56.1658 51.1238ZM18.7638 51.1238C19.4216 51.781 19.7911 52.6723 19.7911 53.6016C19.7911 54.5309 19.4216 55.4222 18.7638 56.0795L15.157 59.6894C14.4986 60.347 13.6057 60.7164 12.6746 60.7164C11.7435 60.7164 10.8506 60.347 10.1922 59.6894C9.53388 59.0317 9.16402 58.1398 9.16402 57.2098C9.16402 56.2797 9.53388 55.3878 10.1922 54.7301L13.8061 51.1203C14.4641 50.4632 15.3564 50.0941 16.2867 50.0941C17.2171 50.0941 18.1094 50.4632 18.7673 51.1203L18.7638 51.1238ZM35.0334 15.6277C40.1746 15.6277 45.1053 17.6678 48.7408 21.2992C52.3762 24.9306 54.4185 29.8558 54.4185 34.9914C54.4185 40.127 52.3762 45.0522 48.7408 48.6836C45.1053 52.315 40.1746 54.3551 35.0334 54.3551C29.8921 54.3551 24.9614 52.315 21.326 48.6836C17.6905 45.0522 15.6482 40.127 15.6482 34.9914C15.6482 29.8558 17.6905 24.9306 21.326 21.2992C24.9614 17.6678 29.8921 15.6277 35.0334 15.6277ZM32.3668 24.4877C31.7309 24.4877 31.1165 24.7177 30.6373 25.1352C30.158 25.5527 29.8464 26.1295 29.7599 26.7587L29.7353 27.1162V37.6445L29.7599 38.002C29.8382 38.5708 30.1008 39.0984 30.5075 39.504C30.9143 39.9097 31.4429 40.1712 32.0124 40.2485L32.3668 40.2731H39.3841L39.7419 40.2485C40.3109 40.1705 40.8386 39.9087 41.2447 39.5031C41.6508 39.0975 41.9128 38.5703 41.991 38.002L42.0155 37.6445L41.991 37.287C41.9128 36.7187 41.6508 36.1915 41.2447 35.7859C40.8386 35.3803 40.3109 35.1185 39.7419 35.0405L39.3841 35.0159H34.9983V27.1162L34.9772 26.7587C34.8907 26.1289 34.5785 25.5517 34.0985 25.1341C33.6185 24.7165 33.0033 24.4869 32.3668 24.4877ZM66.4952 31.5603C67.3895 31.5612 68.2497 31.9033 68.9 32.5165C69.5502 33.1297 69.9416 33.9678 69.994 34.8596C70.0464 35.7514 69.7559 36.6295 69.1819 37.3145C68.608 37.9995 67.7938 38.4397 66.9058 38.5452L66.4952 38.5697H61.3902C60.4959 38.5688 59.6358 38.2267 58.9855 37.6135C58.3352 37.0003 57.9439 36.1622 57.8915 35.2704C57.8391 34.3786 58.1295 33.5006 58.7035 32.8155C59.2775 32.1305 60.0917 31.6903 60.9797 31.5848L61.3902 31.5603H66.4988H66.4952ZM8.61336 31.4621C9.50764 31.4631 10.3678 31.8052 11.0181 32.4184C11.6683 33.0316 12.0597 33.8697 12.1121 34.7615C12.1645 35.6532 11.874 36.5313 11.3 37.2163C10.7261 37.9013 9.91189 38.3416 9.02387 38.4471L8.61336 38.4716H3.50128C2.6073 38.4697 1.74775 38.1271 1.09814 37.5136C0.448539 36.9001 0.0578778 36.062 0.00593252 35.1705C-0.0460128 34.279 0.244676 33.4014 0.81864 32.7167C1.39261 32.0321 2.20655 31.5921 3.09428 31.4867L3.50128 31.4621H8.61336ZM14.8236 10.0271L15.157 10.318L18.7673 13.9279C19.3966 14.5586 19.7619 15.4049 19.7892 16.2949C19.8164 17.1849 19.5034 18.052 18.9138 18.7198C18.3243 19.3877 17.5023 19.8064 16.6149 19.8908C15.7275 19.9753 14.8412 19.7192 14.1359 19.1745L13.8061 18.8801L10.1922 15.2737C9.56298 14.643 9.19764 13.7967 9.17043 12.9066C9.14322 12.0166 9.45619 11.1496 10.0458 10.4817C10.6353 9.81384 11.4573 9.39516 12.3447 9.31072C13.2321 9.22627 14.1184 9.4824 14.8236 10.0271ZM59.7797 10.318C60.3838 10.9215 60.7467 11.7244 60.8004 12.5762C60.854 13.4279 60.5946 14.2699 60.0709 14.9442L59.7797 15.2737L56.1658 18.8836C55.5344 19.5122 54.6872 19.8771 53.7962 19.9043C52.9052 19.9314 52.0372 19.6188 51.3686 19.0299C50.6999 18.441 50.2808 17.6199 50.1963 16.7335C50.1117 15.8471 50.3681 14.9617 50.9134 14.2573L51.2046 13.9244L54.8185 10.3145C55.4765 9.65743 56.3688 9.28833 57.2991 9.28833C58.2295 9.28833 59.1218 9.65743 59.7797 10.3145V10.318ZM34.9983 0C35.8576 0.00011324 36.6871 0.315274 37.3293 0.885704C37.9715 1.45613 38.3818 2.24216 38.4823 3.09469L38.5069 3.50475V8.60416C38.514 9.50289 38.1752 10.37 37.5605 11.0263C36.9458 11.6826 36.1021 12.0779 35.2039 12.1306C34.3057 12.1832 33.4215 11.8892 32.7342 11.3092C32.0469 10.7292 31.6088 9.90761 31.5107 9.01421L31.4896 8.60416V3.50475C31.4896 2.57523 31.8593 1.68378 32.5173 1.02652C33.1753 0.369249 34.0677 0 34.9983 0Z" fill="white"/>
</svg>
