<svg width="54" height="59" viewBox="0 0 54 59" fill="none" xmlns="http://www.w3.org/2000/svg">
<path d="M21.3206 5.44642C21.6002 1.97214 25.416 -0.714388 29.5287 0.169974L30.6515 0.415217C32.6434 0.84625 34.4115 2.10962 35.0051 4.00097C35.8713 6.77597 37.0726 12.2868 35.7168 18.8955C35.5329 19.7922 36.2651 20.6424 37.1776 20.5697C40.2449 20.3282 44.3576 20.3022 48.0014 21.3501C50.2298 21.9929 52.2776 23.8805 53.1638 26.0803C53.8041 27.6794 53.8589 29.5167 52.9592 31.2836C52.5546 32.0783 52.4676 33.0229 52.7508 33.8686C53.082 34.8719 53.2369 35.9755 53.2369 37.0493C53.2369 38.1232 53.082 39.2268 52.7508 40.2301C52.4247 41.2051 52.4179 42.2923 52.4975 43.3174C52.5717 44.2713 52.3531 45.2129 52.0495 45.997C51.7783 46.6727 51.4368 47.3246 51.0297 47.9447C50.4359 48.8492 50.2771 49.9908 50.2771 51.0728C50.2771 52.2061 49.8943 53.3952 49.1887 54.4616C47.7519 56.6391 44.8997 58.4152 40.8687 58.4152H25.8118C23.2091 58.4152 21.2087 58.1142 19.5051 57.6052C18.0403 57.1431 16.6405 56.5398 15.3322 55.8067L15.1257 55.6953C12.9575 54.5545 10.8281 53.4323 6.22925 53.0124C2.93394 52.7077 0 50.4114 0 47.2678V32.4046C0 29.2462 2.94685 27.0836 5.83778 26.4036C9.49015 25.5415 12.6091 23.4792 15.0096 21.1643C17.4187 18.8345 18.9416 16.408 19.4793 15.0741C20.3354 12.9375 21.0108 9.35544 21.3206 5.45013V5.44642Z" fill="#F4F5F4"/>
</svg>
