<svg width="20" height="19" viewBox="0 0 20 19" fill="none" xmlns="http://www.w3.org/2000/svg">
<path d="M10.2726 4.68454C7.60985 4.68454 5.45278 6.84079 5.45278 9.50016C5.45278 12.1606 7.60985 14.3168 10.2726 14.3168C12.9332 14.3168 15.0924 12.1606 15.0924 9.50016C15.0924 6.84079 12.9332 4.68454 10.2726 4.68454ZM10.2726 12.6293C8.54295 12.6293 7.1407 11.2283 7.1407 9.50121C7.1407 7.77308 8.54295 6.37308 10.2726 6.37308C12.0022 6.37308 13.4024 7.77308 13.4024 9.50121C13.4024 11.2283 12.0022 12.6293 10.2726 12.6293Z" fill="white"/>
<path d="M15.2842 5.63037C15.9049 5.63037 16.4081 5.12762 16.4081 4.50745C16.4081 3.88728 15.9049 3.38454 15.2842 3.38454C14.6635 3.38454 14.1603 3.88728 14.1603 4.50745C14.1603 5.12762 14.6635 5.63037 15.2842 5.63037Z" fill="white"/>
<path d="M19.1699 3.36579C18.6809 2.10641 17.6852 1.11058 16.4248 0.624121C15.696 0.350163 14.9256 0.203288 14.1457 0.186621C13.1417 0.142871 12.8237 0.130371 10.2778 0.130371C7.73183 0.130371 7.40551 0.130371 6.40986 0.186621C5.6321 0.202246 4.86164 0.349121 4.13288 0.624121C2.87138 1.11058 1.87572 2.10641 1.3878 3.36579C1.1136 4.09495 0.966601 4.8637 0.950962 5.64287C0.906132 6.64495 0.892578 6.96266 0.892578 9.50745C0.892578 12.0512 0.892578 12.3752 0.950962 13.372C0.966601 14.1512 1.1136 14.92 1.3878 15.6502C1.87676 16.9085 2.87242 17.9043 4.13393 18.3918C4.85956 18.6752 5.63001 18.8356 6.41194 18.8606C7.41594 18.9043 7.73392 18.9179 10.2799 18.9179C12.8258 18.9179 13.1522 18.9179 14.1478 18.8606C14.9266 18.845 15.6971 18.697 16.4269 18.4241C17.6873 17.9356 18.683 16.9408 19.172 15.6814C19.4461 14.9522 19.5931 14.1835 19.6088 13.4043C19.6536 12.4022 19.6672 12.0845 19.6672 9.53975C19.6672 6.99496 19.6672 6.67204 19.6088 5.67516C19.5952 4.88558 19.4493 4.10329 19.1699 3.36579ZM17.9 13.295C17.8927 13.895 17.7843 14.4897 17.5758 15.0533C17.2578 15.8731 16.6104 16.521 15.7909 16.8356C15.2331 17.0429 14.6451 17.1512 14.0498 17.1595C13.0594 17.2054 12.78 17.2168 10.2403 17.2168C7.69847 17.2168 7.43887 17.2168 6.42967 17.1595C5.83644 17.1522 5.24635 17.0429 4.68962 16.8356C3.86703 16.522 3.21542 15.8741 2.89744 15.0533C2.6931 14.497 2.58258 13.9085 2.5732 13.3147C2.52837 12.3252 2.51794 12.046 2.51794 9.5085C2.51794 6.96995 2.51794 6.71058 2.5732 5.7012C2.5805 5.1012 2.68893 4.50745 2.89744 3.94391C3.21542 3.12204 3.86703 2.47516 4.68962 2.16058C5.24635 1.95433 5.83644 1.84495 6.42967 1.83662C7.42115 1.79183 7.69952 1.77933 10.2403 1.77933C12.781 1.77933 13.0416 1.77933 14.0498 1.83662C14.6451 1.84391 15.2331 1.95329 15.7909 2.16058C16.6104 2.4762 17.2578 3.12412 17.5758 3.94391C17.7801 4.50016 17.8906 5.0887 17.9 5.68245C17.9448 6.67308 17.9563 6.9512 17.9563 9.48975C17.9563 12.0272 17.9563 12.3002 17.9115 13.296H17.9V13.295Z" fill="white"/>
</svg>
