<svg width="20" height="19" viewBox="0 0 20 19" fill="none" xmlns="http://www.w3.org/2000/svg">
<path d="M19.7311 18.875H15.5608V11.8438C15.5608 10.741 14.3224 9.81854 13.2187 9.81854C12.115 9.81854 11.3905 10.741 11.3905 11.8438V18.875H7.22027V6.375H11.3905V8.45833C12.081 7.34226 13.8473 6.62216 15.0656 6.62216C17.6423 6.62216 19.7311 8.74854 19.7311 11.3229V18.875ZM5.13512 18.875H0.964844V6.375H5.13512V18.875ZM3.04999 0.125C4.20158 0.125 5.13513 1.05774 5.13513 2.20833C5.13513 3.35893 4.20158 4.29167 3.04999 4.29167C1.8984 4.29167 0.964854 3.35893 0.964854 2.20833C0.964854 1.05774 1.8984 0.125 3.04999 0.125Z" fill="white"/>
</svg>
