<svg width="23" height="18" viewBox="0 0 23 18" fill="none" xmlns="http://www.w3.org/2000/svg">
<path d="M22.2894 2.26273C21.487 2.61831 20.6246 2.85861 19.7197 2.96666C20.6433 2.41339 21.3528 1.53732 21.6869 0.493358C20.8223 1.00571 19.8648 1.37773 18.8456 1.57817C18.0294 0.709337 16.8667 0.166504 15.5797 0.166504C13.1087 0.166504 11.1052 2.16803 11.1052 4.63687C11.1052 4.98723 11.1448 5.32844 11.2211 5.65567C7.50251 5.46921 4.20555 3.68945 1.99878 0.984744C1.61362 1.64499 1.39297 2.41292 1.39297 3.23222C1.39297 4.78321 2.18285 6.15153 3.38346 6.95327C2.65008 6.92994 1.96007 6.7289 1.35687 6.39407C1.35645 6.41274 1.35645 6.4314 1.35645 6.45025C1.35645 8.6163 2.89877 10.4231 4.94561 10.8338C4.57018 10.936 4.17489 10.9907 3.76683 10.9907C3.47851 10.9907 3.19822 10.9625 2.92497 10.9105C3.49437 12.6864 5.14676 13.979 7.10472 14.0149C5.57341 15.2141 3.64415 15.9288 1.54781 15.9288C1.18665 15.9288 0.830501 15.9075 0.480469 15.8662C2.46058 17.1346 4.81249 17.8748 7.33925 17.8748C15.5692 17.8748 20.0697 11.0629 20.0697 5.15523C20.0697 4.96144 20.0654 4.76864 20.0567 4.57687C20.931 3.94657 21.6896 3.15923 22.2894 2.26273Z" fill="white"/>
</svg>
